<svg xmlns="http://www.w3.org/2000/svg" width="800" height="800" viewBox="0 0 800 800" fill="#eff1f3">
  <rect x="0" y="0" width="800" height="800" style="fill: #eff1f3"></rect>
  <path fill-rule="evenodd" clip-rule="evenodd" d="M 225 259.877 C 225.067 250.315 232.797 242.576 242.36 242.5 L 557.64 242.5 C 567.23 242.5 575 250.287 575 259.877 L 575 540.123 C 574.933 549.685 567.203 557.424 557.64 557.5 L 242.36 557.5 C 232.77 557.491 225 549.713 225 540.123 L 225 259.877 Z M 540.002 277.501 L 260.002 277.501 L 260.002 522.501 L 422.612 359.855 C 429.446 353.024 440.523 353.024 447.357 359.855 L 540.002 452.675 L 540.002 277.501 Z M 294.998 347.499 C 294.998 366.829 310.668 382.499 329.998 382.499 C 349.328 382.499 364.998 366.829 364.998 347.499 C 364.998 328.169 349.328 312.499 329.998 312.499 C 310.668 312.499 294.998 328.169 294.998 347.499 Z" fill="#B4BDC6"></path>
</svg>